<?xml version="1.0" encoding="UTF-8"?>
<svg xmlns="http://www.w3.org/2000/svg" xmlns:xlink="http://www.w3.org/1999/xlink" width="999pt" height="744pt" viewBox="0 0 999 744" version="1.1">
<g id="surface1">
<path style=" stroke:none;fill-rule:evenodd;fill:rgb(0%,0%,0%);fill-opacity:1;" d="M 453.777344 76.875 C 395.59375 89.113281 337.675781 118.871094 299.460938 156.167969 C 260.257812 194.433594 228.066406 249.132812 217.238281 295.886719 C 201.878906 362.242188 203.964844 413.402344 224.449219 472.59375 C 256.1875 564.308594 327.304688 633.488281 418.363281 661.230469 C 444.179688 669.101562 488.777344 676.574219 509.886719 676.574219 C 531.710938 676.574219 575.984375 668.988281 598.71875 661.347656 C 623.816406 652.917969 664.335938 631.632812 685.089844 615.980469 C 706.335938 599.957031 735.820312 569.652344 751.261719 547.964844 C 764.183594 529.835938 782.832031 497.816406 782.832031 493.785156 C 782.832031 490.082031 736.382812 463.980469 734.265625 466.496094 C 733.335938 467.589844 726.710938 478.425781 719.542969 490.574219 C 685.660156 547.980469 640.851562 588.429688 591.058594 606.570312 C 558.449219 618.445312 537.070312 621.863281 495.949219 621.777344 C 454.742188 621.6875 433.6875 617.863281 399.921875 604.332031 C 379.839844 596.285156 338.511719 572.339844 325.566406 561.253906 L 316.988281 553.898438 L 302.585938 559.121094 C 294.664062 561.992188 287.628906 563.785156 286.953125 563.109375 C 286.273438 562.425781 285.722656 552.566406 285.722656 541.183594 C 285.722656 520.835938 285.535156 520.152344 274.269531 499.144531 C 243.898438 442.519531 233.394531 393.742188 239.214844 336.472656 C 246.308594 266.648438 271.957031 209.316406 315.921875 165.015625 C 357.433594 123.183594 407.359375 97.199219 470.691406 84.464844 C 485.859375 81.410156 502.160156 80.320312 532.414062 80.339844 C 555.023438 80.347656 573.308594 80.140625 573.042969 79.871094 C 572.773438 79.605469 560.769531 77.742188 546.371094 75.730469 C 512.011719 70.933594 480.160156 71.332031 453.777344 76.875 M 577.976562 82.964844 C 579.652344 83.636719 581.65625 83.550781 582.429688 82.777344 C 583.199219 82.003906 581.828125 81.457031 579.386719 81.558594 C 576.675781 81.667969 576.125 82.21875 577.976562 82.964844 M 684.109375 176.914062 C 677.71875 178.074219 669.09375 179.597656 664.941406 180.296875 L 657.394531 181.5625 L 657.394531 279.519531 L 666.0625 277.894531 C 681.984375 274.898438 685.136719 270.378906 685.339844 250.230469 L 685.417969 242.964844 L 696.375 254.96875 C 710.09375 270.003906 715.929688 273.167969 723.015625 269.433594 C 734.648438 263.300781 734.5 256.222656 722.4375 241.800781 C 713.367188 230.957031 710.976562 225.527344 715.277344 225.527344 C 719.738281 225.527344 727.082031 209.691406 727.082031 200.078125 C 727.082031 192.363281 725.648438 188.855469 720.292969 183.496094 C 716.554688 179.753906 711.59375 176.6875 709.257812 176.667969 C 706.925781 176.652344 702.921875 176.222656 700.367188 175.714844 C 697.816406 175.210938 690.496094 175.746094 684.109375 176.914062 M 617.902344 189.109375 L 593.511719 194.136719 L 592.886719 243.542969 C 592.398438 282.277344 592.894531 292.9375 595.207031 292.902344 C 602.308594 292.78125 646.332031 281.699219 648.558594 279.46875 C 649.917969 278.109375 651.152344 273.003906 651.308594 268.121094 C 651.617188 258.214844 650.433594 257.84375 630.097656 261.53125 L 620.226562 263.320312 L 620.226562 254.972656 C 620.226562 247.09375 620.773438 246.488281 630.097656 244.160156 C 644.765625 240.5 646.867188 238.691406 647.679688 229.070312 L 648.414062 220.300781 L 637.507812 221.9375 C 631.507812 222.835938 625.089844 224.152344 623.242188 224.867188 C 620.644531 225.863281 620.054688 224.386719 620.640625 218.324219 C 621.351562 210.886719 621.972656 210.394531 632.933594 208.566406 C 647.777344 206.097656 650.425781 203.691406 650.425781 192.691406 C 650.425781 182.003906 651.691406 182.144531 617.902344 189.109375 M 685.269531 209.097656 C 685.269531 215.574219 686.128906 220.875 687.1875 220.875 C 688.242188 220.875 691.464844 218.363281 694.347656 215.289062 C 701.527344 207.636719 700.1875 199.035156 691.65625 198.050781 C 685.433594 197.332031 685.269531 197.617188 685.269531 209.097656 M 535.441406 206.660156 C 513.667969 216.699219 503.042969 235.039062 502.96875 262.722656 C 502.910156 282.824219 507.4375 293.03125 520.226562 301.660156 C 535.796875 312.164062 568.542969 306.773438 580.339844 291.765625 C 584.742188 286.160156 585.382812 282.433594 585.382812 262.410156 C 585.382812 236.675781 586.238281 237.621094 566.796875 241.878906 C 543.796875 246.910156 545.566406 245.652344 546.339844 256.410156 C 547 265.453125 547.558594 266.203125 553.554688 266.113281 C 559.390625 266.019531 559.980469 266.722656 559.363281 272.933594 C 558.816406 278.390625 557.207031 280.246094 551.773438 281.6875 C 536.765625 285.671875 527.890625 268.066406 534.703125 247.835938 C 539.128906 234.710938 547.835938 229.140625 564.796875 228.589844 C 572.46875 228.339844 580.242188 226.902344 582.066406 225.386719 C 587.214844 221.105469 586.167969 210.0625 580.21875 205.894531 C 572.855469 200.730469 547.355469 201.167969 535.441406 206.660156 M 446.003906 232.160156 L 428.582031 238.3125 L 427.957031 288.878906 C 427.265625 344.894531 426.613281 342.765625 442.40625 336.160156 C 452.550781 331.917969 455.296875 326.464844 455.296875 310.542969 C 455.296875 303.425781 456.117188 297.597656 457.117188 297.597656 C 458.121094 297.597656 464.621094 303.355469 471.558594 310.386719 C 485.300781 324.316406 491.761719 326.203125 499.433594 318.527344 C 506.855469 311.097656 505.328125 302.535156 494.628906 291.625 L 485.175781 281.988281 L 492.304688 270.738281 C 503.5625 252.976562 501.777344 236.238281 487.863281 229.035156 C 478.355469 224.113281 466.234375 225.015625 446.003906 232.160156 M 399.546875 247.074219 C 393.75 250.066406 393.742188 250.121094 393.148438 288.363281 C 392.605469 323.707031 392.191406 326.964844 387.808594 330.613281 C 377.867188 338.886719 376.316406 334.574219 376.316406 298.679688 C 376.316406 256.386719 374.734375 254.046875 352.03125 262.683594 L 346.121094 264.933594 L 346.121094 301.105469 C 346.121094 340.128906 348.171875 349.683594 358.003906 356.582031 C 372.339844 366.636719 404.15625 356.410156 414.730469 338.347656 C 420.445312 328.589844 420.554688 327.5625 419.925781 286.839844 L 419.292969 245.285156 L 412.324219 244.683594 C 408.488281 244.351562 402.742188 245.425781 399.546875 247.074219 M 456.847656 250.328125 C 455.996094 251.175781 455.296875 257.488281 455.296875 264.355469 C 455.296875 276.285156 455.511719 276.722656 460.140625 274.246094 C 466.949219 270.597656 472.660156 256.394531 469.066406 252.058594 C 466.21875 248.625 459.5 247.671875 456.847656 250.328125 M 292.691406 284.453125 L 272.945312 292.296875 L 272.324219 347.523438 C 271.765625 396.636719 272.097656 402.601562 275.304688 401.371094 C 329.671875 380.492188 344.957031 368.769531 344.957031 347.980469 C 344.957031 338.414062 343.914062 335.8125 337.945312 330.472656 L 330.929688 324.199219 L 336.203125 316.367188 C 343.515625 305.503906 343.375 290.898438 335.890625 283.863281 C 326.84375 275.355469 315.210938 275.511719 292.691406 284.453125 M 682.945312 282.320312 C 645.1875 292.808594 620.226562 326.644531 620.226562 367.347656 C 620.226562 395.46875 632.296875 416.917969 653.746094 426.914062 C 684.578125 441.285156 737.835938 425.582031 747.835938 399.167969 C 749.195312 395.566406 750.3125 378.972656 750.3125 362.296875 C 750.3125 332.03125 750.304688 331.972656 745.085938 333.214844 C 742.207031 333.902344 728.097656 336.777344 713.722656 339.605469 L 687.59375 344.75 L 687.59375 356.925781 C 687.59375 371.164062 690.878906 375.046875 701.992188 373.929688 C 708.820312 373.246094 709.734375 373.847656 710.382812 379.425781 C 710.957031 384.394531 709.664062 386.425781 704.109375 389.304688 C 690.128906 396.542969 673.734375 391.554688 669.257812 378.699219 C 661.78125 357.230469 669.925781 332.871094 687.695312 323.570312 C 697.011719 318.6875 700.09375 318.277344 718.546875 319.484375 C 741.683594 320.996094 746.402344 319.449219 749.976562 309.1875 C 754.390625 296.515625 747.058594 286.082031 730.566406 281.570312 C 718.550781 278.28125 696.214844 278.632812 682.945312 282.320312 M 302.5625 301.464844 C 299.097656 302.867188 298.554688 323.175781 301.984375 323.175781 C 306.34375 323.175781 313.597656 313.886719 313.597656 308.3125 C 313.597656 304.03125 308.65625 298.792969 305.855469 300.105469 C 305.644531 300.207031 304.160156 300.820312 302.5625 301.464844 M 597.320312 306.707031 C 576.175781 314.011719 574.042969 317.628906 572.023438 349.636719 L 570.28125 377.148438 L 549.820312 353.660156 C 537.121094 339.082031 527.039062 329.585938 523.242188 328.632812 C 517.371094 327.160156 505.421875 329.425781 491.886719 334.578125 L 485.496094 337.007812 L 485.496094 411.714844 C 485.496094 470.484375 486.117188 486.199219 488.398438 485.378906 C 489.996094 484.808594 496.792969 482.394531 503.507812 480.019531 C 510.21875 477.644531 518.355469 472.933594 521.59375 469.554688 C 527.140625 463.761719 527.546875 461.625 528.65625 432.328125 C 529.304688 415.230469 530.054688 401.070312 530.316406 400.859375 C 530.582031 400.648438 540.722656 411.765625 552.863281 425.558594 C 577.261719 453.296875 583.691406 457.542969 596.386719 454.320312 C 612.355469 450.265625 613.160156 447.121094 613.300781 388.277344 C 613.488281 307.511719 613.378906 302.246094 611.515625 302.328125 C 610.558594 302.367188 604.171875 304.339844 597.320312 306.707031 M 302.5625 340.988281 C 299.273438 342.320312 298.398438 367.347656 301.644531 367.347656 C 302.734375 367.347656 306.394531 364.785156 309.773438 361.652344 C 321 351.234375 315.589844 335.730469 302.5625 340.988281 M 457.621094 344.042969 C 439.929688 349.445312 434.84375 352.546875 429.628906 361.105469 C 425.425781 368 425.117188 373.292969 425.109375 437.835938 L 425.097656 507.164062 L 430.324219 505.546875 C 447.871094 500.125 459.878906 494.425781 464.789062 489.203125 L 470.398438 483.238281 L 471.558594 412.277344 C 472.199219 373.253906 472.199219 341.058594 471.558594 340.734375 C 470.917969 340.410156 464.648438 341.898438 457.621094 344.042969 M 381.675781 372.582031 C 379.066406 375.460938 368.695312 391.414062 358.625 408.035156 L 340.3125 438.261719 L 339.648438 414.433594 C 339.285156 401.324219 338.238281 390.597656 337.328125 390.585938 C 334.84375 390.566406 298.789062 405.007812 296.636719 406.882812 C 294.894531 408.402344 294.183594 553.292969 295.910156 555.019531 C 296.34375 555.457031 304.1875 553.03125 313.339844 549.640625 C 337.675781 540.605469 339.144531 537.996094 339.167969 503.628906 L 339.183594 475.464844 L 358.332031 494.957031 C 368.863281 505.679688 380.8125 515.867188 384.882812 517.59375 C 401.015625 524.445312 418.128906 512.808594 418.128906 494.992188 C 418.128906 486.691406 416.371094 483.980469 399.761719 466.667969 L 381.390625 447.511719 L 397.40625 423.121094 C 416.304688 394.347656 419.640625 386.152344 415.570312 378.507812 C 411.207031 370.308594 406.230469 367.503906 395.886719 367.421875 C 388.960938 367.371094 385.144531 368.753906 381.675781 372.582031 M 769.058594 466.746094 C 769.148438 467.703125 770.121094 470.582031 771.21875 473.136719 C 772.988281 477.253906 773.234375 477.058594 773.378906 471.394531 C 773.46875 467.878906 772.5 465 771.21875 465 C 769.941406 465 768.96875 465.785156 769.058594 466.746094 M 778.253906 470.929688 C 778.320312 476.941406 778.636719 477.253906 780.824219 473.496094 C 782.605469 470.417969 782.585938 468.472656 780.75 466.636719 C 778.882812 464.761719 778.203125 465.925781 778.253906 470.929688 M 785.617188 470.113281 C 781.640625 474.097656 782.15625 475.625 787.476562 475.625 C 790.390625 475.625 792.125 474.078125 792.125 471.476562 C 792.125 466.667969 789.597656 466.136719 785.617188 470.113281 "/>
</g>
</svg>
