<svg xmlns="http://www.w3.org/2000/svg" width="350" height="350" viewBox="0 0 350 350" version="1.1">
	<path d="M 139.500 6.584 C 116.404 10.152, 91.811 20.379, 71.564 34.834 C 62.168 41.543, 45.339 57.905, 38.606 66.880 C 24.220 86.054, 13.448 109.899, 8.510 133.500 C 6.272 144.198, 5.446 169.765, 6.906 183.177 C 10.533 216.492, 26.721 250.846, 49.286 273.113 C 53.302 277.076, 55.554 279.982, 54.803 280.232 C 52.989 280.837, 71.415 298.798, 73.263 298.225 C 73.750 298.074, 73.865 298.410, 73.518 298.971 C 73.171 299.532, 74.150 300.553, 75.694 301.239 C 77.237 301.925, 78.950 302.837, 79.500 303.266 C 95.410 315.680, 119.225 326.578, 141 331.408 C 163.117 336.313, 194.308 335.867, 214 330.363 C 231.941 325.349, 250.138 317.789, 259.407 311.498 C 261.432 310.124, 263.332 309, 263.629 309 C 264.576 309, 276.234 299.759, 284.258 292.648 C 301.274 277.569, 316.270 255.901, 325.195 233.500 C 336.258 205.729, 339.305 172.678, 333.567 142.688 C 331.367 131.187, 326.368 115.777, 321.991 107 C 318.485 99.969, 310.644 85.486, 310.080 85 C 309.062 84.123, 302.487 75.593, 300.829 73 C 299.171 70.407, 298.054 69.057, 290.280 60.250 C 285.972 55.369, 283 53.634, 283 56 C 283 56.550, 282.523 57, 281.941 57 C 281.359 57, 281.207 56.474, 281.605 55.830 C 282.096 55.036, 281.776 54.872, 280.612 55.319 C 279.668 55.681, 279.146 55.573, 279.451 55.079 C 280.397 53.549, 278.821 50.855, 277.319 51.431 C 276.536 51.731, 276.155 51.558, 276.472 51.046 C 277.491 49.396, 269.023 41.776, 255.637 32.299 C 237.824 19.686, 212.299 9.561, 190.500 6.459 C 177.973 4.677, 151.424 4.742, 139.500 6.584 M 146 8.541 C 140.775 9.329, 135.825 10.025, 135 10.087 C 134.175 10.148, 130.915 11.082, 127.756 12.162 C 124.597 13.242, 121.509 13.815, 120.894 13.435 C 120.280 13.055, 119.489 13.170, 119.138 13.691 C 118.185 15.106, 110.010 18.124, 108.934 17.459 C 108.420 17.142, 108 17.359, 108 17.941 C 108 18.523, 107.325 19, 106.500 19 C 105.675 19, 105 19.340, 105 19.755 C 105 20.490, 98.711 22.993, 96.294 23.220 C 95.631 23.282, 95.320 23.708, 95.603 24.167 C 95.886 24.625, 95.304 25.016, 94.309 25.035 C 92.438 25.072, 86.770 27.902, 88.441 27.965 C 89.665 28.011, 85.813 30.931, 84.500 30.953 C 83.950 30.962, 84.175 30.533, 85 30 C 85.825 29.467, 86.075 29.024, 85.555 29.015 C 85.035 29.007, 83.278 30.238, 81.650 31.750 C 80.022 33.263, 79.009 33.943, 79.397 33.261 C 79.877 32.421, 79.592 32.219, 78.509 32.635 C 77.632 32.972, 77.137 33.470, 77.409 33.743 C 78.327 34.660, 75.027 37.135, 73.853 36.409 C 73.077 35.930, 72.963 36.131, 73.510 37.015 C 74.099 37.969, 73.876 38.166, 72.715 37.721 C 71.528 37.265, 71.265 37.528, 71.721 38.715 C 72.133 39.789, 71.949 40.087, 71.170 39.605 C 70.526 39.207, 70 39.348, 70 39.917 C 70 40.486, 68.383 41.782, 66.407 42.795 C 64.431 43.809, 62.799 45.057, 62.780 45.569 C 62.714 47.353, 61.779 49, 60.834 49 C 60.310 49, 60.170 48.438, 60.522 47.750 C 60.873 47.063, 60.046 47.709, 58.684 49.186 C 57.321 50.664, 55.990 51.657, 55.726 51.393 C 55.463 51.129, 54.972 51.632, 54.635 52.509 C 54.216 53.602, 54.413 53.870, 55.261 53.360 C 56.059 52.881, 56.005 53.227, 55.107 54.332 C 54.342 55.276, 53.498 55.832, 53.233 55.567 C 52.968 55.302, 52.020 55.875, 51.126 56.840 C 50.088 57.959, 49.844 58.034, 50.452 57.047 C 51.248 55.753, 51.168 55.711, 49.963 56.788 C 49.171 57.497, 48.518 58.847, 48.512 59.788 C 48.505 60.730, 47.882 61.369, 47.127 61.209 C 46.271 61.028, 45.970 61.479, 46.326 62.408 C 46.734 63.471, 46.433 63.719, 45.275 63.275 C 44.047 62.804, 43.814 63.072, 44.315 64.378 C 44.679 65.327, 44.583 65.861, 44.102 65.563 C 43.621 65.266, 42.951 66.030, 42.614 67.261 C 42.095 69.155, 41.836 69.269, 40.935 68 C 40.096 66.820, 40.006 66.986, 40.510 68.775 C 40.960 70.374, 40.757 70.969, 39.825 70.775 C 39.096 70.624, 38.494 71.256, 38.487 72.179 C 38.480 73.103, 38.071 74.228, 37.577 74.679 C 37.054 75.157, 37.019 74.914, 37.494 74.095 C 38.042 73.151, 37.931 72.925, 37.155 73.405 C 36.520 73.797, 36 75.018, 36 76.118 C 36 77.229, 35.544 77.836, 34.975 77.485 C 34.412 77.136, 34.015 77.222, 34.094 77.676 C 34.488 79.945, 33.887 82.048, 33 81.500 C 32.450 81.160, 32 81.400, 32 82.033 C 32 82.666, 31.100 84.329, 30 85.727 C 28.900 87.126, 28 89.082, 28 90.076 C 28 91.069, 27.555 92.157, 27.011 92.493 C 26.435 92.849, 26.256 92.352, 26.581 91.302 C 26.887 90.311, 26.472 90.619, 25.657 91.987 C 24.842 93.356, 24.405 94.846, 24.686 95.300 C 24.966 95.755, 24.433 96.969, 23.500 98 C 22.552 99.048, 22.136 100.411, 22.557 101.091 C 23.037 101.868, 22.891 102.051, 22.155 101.595 C 21.463 101.168, 21 101.533, 21 102.505 C 21 103.398, 19.852 106.639, 18.448 109.707 C 17.044 112.776, 16.130 115.897, 16.417 116.643 C 16.703 117.389, 16.537 118, 16.048 118 C 15.243 118, 13.920 122.189, 13.523 126 C 13.437 126.825, 12.874 129.075, 12.273 131 C 11.220 134.372, 10.999 135.892, 10.855 140.750 C 10.818 141.988, 10.394 143, 9.912 143 C 8.499 143, 9.678 184.481, 11.362 194 C 12.188 198.675, 14.225 206.227, 15.888 210.782 C 17.552 215.338, 18.665 219.838, 18.362 220.782 C 17.887 222.265, 17.973 222.295, 18.992 221 C 19.977 219.750, 20.091 219.874, 19.681 221.749 C 19.410 222.986, 19.665 224.293, 20.248 224.654 C 20.917 225.067, 21.010 224.825, 20.500 224 C 19.992 223.178, 20.083 222.934, 20.745 223.342 C 21.325 223.701, 22.339 226.245, 22.999 228.997 C 23.659 231.749, 24.605 234, 25.100 234 C 25.595 234, 26 234.927, 26 236.059 C 26 237.376, 26.421 237.858, 27.170 237.395 C 27.964 236.904, 28.128 237.224, 27.681 238.388 C 27.319 239.332, 27.424 239.856, 27.914 239.553 C 28.404 239.250, 29.297 240.413, 29.898 242.138 C 30.499 243.862, 31.781 245.920, 32.746 246.711 C 33.711 247.501, 33.899 247.840, 33.165 247.462 C 32.430 247.085, 32.951 248.514, 34.322 250.638 C 35.692 252.762, 37.339 254.376, 37.981 254.225 C 38.623 254.074, 38.883 254.381, 38.558 254.907 C 38.233 255.433, 38.923 256.533, 40.092 257.352 C 41.385 258.258, 41.918 259.323, 41.454 260.075 C 40.929 260.924, 41.104 261.054, 42.015 260.490 C 42.965 259.904, 43.167 260.122, 42.729 261.263 C 42.394 262.138, 42.777 263.400, 43.582 264.068 C 44.796 265.076, 44.927 264.975, 44.353 263.477 C 43.876 262.235, 44.025 261.897, 44.830 262.395 C 45.474 262.793, 46 263.965, 46 265 C 46 266.035, 46.520 267.203, 47.155 267.595 C 47.918 268.068, 48.035 267.866, 47.500 267 C 46.949 266.108, 47.080 265.932, 47.914 266.447 C 48.586 266.862, 48.897 267.826, 48.604 268.589 C 48.311 269.352, 48.415 269.869, 48.833 269.738 C 50.242 269.297, 55.648 274.557, 55.192 275.924 C 54.921 276.738, 55.191 277, 55.870 276.580 C 56.492 276.196, 57 276.359, 57 276.941 C 57 277.523, 57.572 278, 58.271 278 C 59.995 278, 71.411 289.923, 70.529 290.802 C 70.143 291.186, 68.907 290.375, 67.782 289 C 66.656 287.625, 65.361 286.607, 64.904 286.738 C 64.446 286.869, 64.365 286.194, 64.723 285.238 C 65.298 283.705, 65.171 283.665, 63.654 284.900 C 62.063 286.195, 62.179 286.513, 65.217 289.162 C 67.023 290.737, 69.808 292.742, 71.406 293.619 C 73.004 294.495, 75.164 296.006, 76.205 296.976 C 77.246 297.946, 82.238 301.027, 87.299 303.823 C 111.523 317.209, 138.296 324.122, 165.693 324.066 C 180.509 324.036, 182.696 323.798, 199.215 320.418 C 213.424 317.511, 220.364 315.205, 233.714 308.955 C 267.332 293.216, 293.558 267.291, 309.836 233.707 C 315.776 221.453, 318.387 213.946, 321.560 200 C 329.212 166.377, 326.173 132.452, 312.697 101.031 C 307.149 88.094, 302.121 79.495, 292.609 66.676 C 286.262 58.123, 284.441 56.235, 283.925 57.676 C 283.516 58.820, 283.782 59.621, 284.637 59.823 C 285.386 60.001, 286 61.014, 286 62.074 C 286 63.590, 285.147 63.093, 282.011 59.751 C 275.301 52.601, 272.538 50.002, 271.643 50.001 C 271.172 50.001, 271.064 49.275, 271.404 48.389 C 271.834 47.270, 271.590 46.944, 270.605 47.321 C 269.826 47.620, 268.370 46.883, 267.370 45.683 C 266.371 44.482, 266.194 44.063, 266.977 44.750 C 267.759 45.438, 268.860 46, 269.423 46 C 269.985 46, 269.444 45.299, 268.221 44.442 C 266.997 43.585, 265.598 43.130, 265.112 43.431 C 264.625 43.731, 263.993 43.083, 263.707 41.989 C 263.421 40.895, 262.444 40, 261.535 40 C 260.561 40, 260.169 39.536, 260.580 38.870 C 261.007 38.180, 260.738 37.933, 259.889 38.235 C 257.943 38.928, 254.802 37.130, 255.627 35.795 C 256.038 35.129, 255.851 34.974, 255.155 35.405 C 254.520 35.797, 254 35.649, 254 35.075 C 254 34.501, 251.412 32.696, 248.250 31.064 C 245.088 29.432, 242.943 28.075, 243.485 28.048 C 245.100 27.969, 237.682 24.284, 233.211 22.945 C 230.902 22.253, 229.342 21.256, 229.689 20.694 C 230.070 20.078, 229.473 19.905, 228.155 20.249 C 226.968 20.560, 226.249 20.405, 226.558 19.907 C 226.866 19.408, 226.191 19, 225.059 19 C 223.927 19, 223 18.520, 223 17.933 C 223 17.299, 222.136 17.140, 220.875 17.540 C 219.562 17.957, 218.986 17.832, 219.367 17.215 C 220.050 16.110, 206.066 12, 201.623 12 C 200.115 12, 199.120 11.615, 199.410 11.145 C 199.701 10.675, 198.715 10.274, 197.219 10.255 C 195.724 10.235, 191.350 9.740, 187.500 9.154 C 175.123 7.271, 156.257 6.992, 146 8.541 M 150.572 11.243 C 127.712 13.146, 101.958 22.311, 81.500 35.822 C 44.545 60.229, 20.607 97.524, 13.400 141.923 C 11.509 153.573, 11.611 176.365, 13.607 188.074 C 17.312 209.811, 26.044 231.824, 38.168 249.986 C 50.228 268.054, 71.188 287.326, 90.881 298.453 C 130.017 320.566, 178.969 323.962, 221 307.481 C 271.467 287.692, 308.071 242.888, 317.118 189.829 C 319.913 173.436, 319.434 147.941, 316.030 132 C 313.774 121.433, 308.222 105.282, 303.992 96.978 C 278.757 47.447, 231.454 15.227, 177.826 11.042 C 171.047 10.513, 164.150 10.174, 162.500 10.290 C 160.850 10.405, 155.482 10.834, 150.572 11.243 M 142 38 L 142 58 146 58 L 150 58 150 45 C 150 37.850, 150.338 32.005, 150.750 32.012 C 151.162 32.019, 153.588 37.756, 156.140 44.762 L 160.780 57.500 165.235 57.798 L 169.690 58.097 174.447 45.298 C 177.064 38.259, 179.532 32.150, 179.931 31.722 C 180.330 31.294, 180.450 37.031, 180.198 44.472 L 179.739 58 184.370 58 L 189 58 189 38 L 189 18 182.644 18 L 176.287 18 171.756 29.750 C 169.264 36.213, 166.895 42.586, 166.493 43.913 C 165.561 46.988, 165.440 46.760, 159.476 30.750 L 154.726 18 148.363 18 L 142 18 142 38 M 249.605 65.001 C 243.737 72.702, 238.690 79.645, 238.389 80.429 C 238.082 81.228, 239.347 83.499, 241.264 85.591 L 244.686 89.325 255.093 84.806 C 260.817 82.320, 265.638 80.397, 265.806 80.533 C 265.974 80.668, 263.124 85.155, 259.471 90.504 L 252.831 100.230 256.166 103.854 C 257.999 105.847, 259.627 107.685, 259.783 107.939 C 260.005 108.300, 292.184 92.621, 293.927 91.302 C 294.628 90.772, 288.722 85, 287.478 85 C 286.847 85, 281.981 87.235, 276.665 89.966 C 271.349 92.697, 267 94.768, 267 94.569 C 267 94.369, 269.945 89.893, 273.545 84.621 C 280.572 74.330, 280.657 73.762, 275.842 69.358 L 273.500 67.216 263.250 72.042 C 257.613 74.696, 253 76.614, 253 76.304 C 253 75.995, 255.933 71.730, 259.518 66.827 L 266.036 57.914 263.399 54.457 C 261.949 52.556, 260.653 51, 260.518 51 C 260.383 51, 255.472 57.301, 249.605 65.001 M 65.436 55.997 C 62.831 57.666, 41.863 81.856, 41.312 83.828 C 41.081 84.652, 70.455 109, 71.680 109 C 72.738 109, 93.147 84.523, 94.991 81.042 C 97.028 77.197, 96.434 73.063, 93.388 69.883 C 90.197 66.553, 85.182 65.297, 81.959 67.022 C 79.887 68.131, 79.755 68.046, 80.300 65.960 C 81.445 61.583, 75.279 53.980, 70.615 54.017 C 69.452 54.026, 67.121 54.917, 65.436 55.997 M 287.378 62.750 C 287.617 63.987, 287.326 65, 286.732 65 C 286.138 65, 286.638 66.050, 287.843 67.333 C 289.893 69.515, 293 70.512, 293 68.988 C 293 68.615, 292.047 67.453, 290.882 66.405 C 289.717 65.357, 288.354 63.600, 287.854 62.500 C 287.014 60.654, 286.977 60.673, 287.378 62.750 M 147.011 64.143 C 143.993 64.643, 137.213 66.547, 131.945 68.375 C 100.693 79.216, 76.914 104.688, 67.416 137.500 C 63.890 149.681, 63.008 169.511, 65.425 182.312 C 77.033 243.818, 139.406 280.346, 198.807 260.426 C 217.775 254.066, 236.710 239.944, 248.613 223.282 C 262.364 204.034, 269.487 177.258, 266.938 154.398 C 261.868 108.928, 229.122 72.897, 185.162 64.416 C 177.044 62.850, 155.739 62.697, 147.011 64.143 M 59.517 72.667 L 52.976 80.334 56.238 83.126 C 58.032 84.662, 59.739 85.937, 60.030 85.959 C 61.093 86.041, 73 71.168, 73 69.760 C 73 67.874, 69.800 65, 67.701 65 C 66.798 65, 63.115 68.450, 59.517 72.667 M 152 66.089 C 144.437 67.062, 125 72.919, 125 74.227 C 125 74.717, 124.550 74.840, 124 74.500 C 123.450 74.160, 123 74.385, 123 75 C 123 75.615, 122.566 75.850, 122.035 75.522 C 120.972 74.865, 112.653 79.986, 113.464 80.797 C 114.046 81.380, 110.946 83.921, 109.595 83.968 C 109.097 83.986, 109.547 83.024, 110.595 81.830 C 112.374 79.804, 112.286 79.816, 109.250 82.018 C 107.463 83.315, 106 84.444, 106 84.527 C 106 84.610, 107.238 84.592, 108.750 84.485 C 110.263 84.379, 114.252 82.635, 117.615 80.610 C 127.943 74.390, 145.118 69.286, 157.500 68.757 L 163.500 68.500 163.760 115.260 L 164.020 162.020 116.760 161.760 L 69.500 161.500 69.856 155 C 70.323 146.494, 74.059 132.269, 78.130 123.500 C 79.917 119.650, 81.466 115.269, 81.572 113.765 L 81.764 111.030 79.880 113.426 C 78.737 114.879, 78.259 116.513, 78.667 117.575 C 79.123 118.764, 78.967 119.098, 78.181 118.612 C 77.401 118.130, 77.238 118.456, 77.681 119.612 C 78.179 120.910, 77.994 121.119, 76.920 120.472 C 75.702 119.738, 75.698 119.860, 76.891 121.331 C 78.095 122.814, 78.078 122.967, 76.770 122.465 C 75.895 122.129, 74.998 122.562, 74.640 123.494 C 74.216 124.601, 74.410 124.871, 75.261 124.360 C 76.221 123.784, 76.237 123.942, 75.333 125.061 C 68.658 133.322, 64.662 163.846, 67.925 181.652 C 74.734 218.806, 102.607 249.183, 139.500 259.656 C 148.604 262.240, 150.934 262.494, 165.500 262.491 C 179.887 262.489, 182.493 262.211, 191.348 259.742 C 209.727 254.616, 224.340 245.767, 237.562 231.755 C 257.153 210.994, 267.267 181.667, 264.225 154.445 C 257.952 98.306, 207.904 58.903, 152 66.089 M 167.971 68.950 C 167.740 73.400, 168.156 161.490, 168.410 161.743 C 168.605 161.938, 189.100 161.539, 213.955 160.858 C 249.430 159.885, 259.308 159.880, 259.898 160.834 C 261.170 162.893, 260.082 148.103, 258.522 142.132 C 253.874 124.343, 246.838 111.282, 235.301 99.021 C 218.992 81.689, 198.435 71.342, 176.004 69.174 C 171.602 68.748, 167.987 68.647, 167.971 68.950 M 150 71.500 C 116.517 77.282, 86.350 103.499, 76.136 135.693 C 72.650 146.680, 70.673 159.937, 72.419 160.607 C 73.014 160.835, 93.300 160.904, 117.500 160.761 L 161.500 160.500 161.760 115.250 L 162.020 70 159.760 70.103 C 158.517 70.159, 154.125 70.788, 150 71.500 M 291.991 72.489 C 292.671 73.308, 293.702 73.684, 294.283 73.325 C 294.942 72.918, 295.099 73.299, 294.701 74.336 C 294.079 75.957, 295.055 76.612, 296.274 75.392 C 297.342 74.324, 294.589 71, 292.637 71 C 291.084 71, 290.971 71.260, 291.991 72.489 M 73.801 81.250 C 64.980 91.520, 65.338 90.572, 69.088 93.727 C 70.900 95.252, 72.734 96.500, 73.163 96.500 C 74.045 96.500, 87 81.165, 87 80.120 C 87 79.749, 86.299 78.445, 85.443 77.223 C 82.727 73.344, 79.688 74.396, 73.801 81.250 M 296.380 77.452 C 296.074 78.251, 296.119 79.383, 296.480 79.968 C 297.224 81.172, 299 80.406, 299 78.882 C 299 78.332, 298.474 78.207, 297.830 78.605 C 297.043 79.091, 296.869 78.783, 297.299 77.664 C 297.650 76.749, 297.712 76, 297.437 76 C 297.162 76, 296.686 76.653, 296.380 77.452 M 115.559 79.532 C 114.491 80.339, 114.099 81, 114.686 81 C 115.274 81, 116.315 80.325, 117 79.500 C 118.557 77.624, 118.067 77.634, 115.559 79.532 M 299 81.878 C 299 82.360, 299.695 83.332, 300.546 84.038 C 301.396 84.743, 301.894 85.833, 301.654 86.460 C 301.413 87.087, 302.505 89.328, 304.080 91.440 C 305.655 93.553, 306.705 95.668, 306.413 96.141 C 306.121 96.613, 306.359 97, 306.941 97 C 307.523 97, 308 96.732, 308 96.404 C 308 95.492, 304.605 89.577, 303.697 88.908 C 303.256 88.583, 302.997 87.908, 303.122 87.408 C 303.449 86.102, 300.836 81, 299.839 81 C 299.378 81, 299 81.395, 299 81.878 M 99.573 89.521 C 98.513 90.323, 97.878 91.212, 98.162 91.496 C 98.447 91.780, 99.496 91.110, 100.494 90.006 C 102.621 87.657, 102.277 87.476, 99.573 89.521 M 108.405 92.146 C 107.081 93.637, 106.958 94.095, 108 93.647 C 108.825 93.292, 110.287 92.724, 111.250 92.384 C 112.213 92.045, 113 91.369, 113 90.883 C 113 89.248, 110.325 89.983, 108.405 92.146 M 94.625 94.125 C 92.318 96.819, 93.124 97.626, 95.500 95 C 96.502 93.893, 97.112 92.779, 96.857 92.524 C 96.602 92.269, 95.598 92.989, 94.625 94.125 M 110.446 94.087 C 110.077 94.685, 108.909 94.948, 107.851 94.671 C 106.602 94.345, 104.722 95.279, 102.491 97.334 C 98.515 100.997, 93.998 106.910, 94.004 108.444 C 94.006 109.025, 94.916 108.010, 96.026 106.190 C 97.606 103.597, 98.527 102.999, 100.272 103.430 C 101.497 103.734, 101.938 103.723, 101.250 103.407 C 99.533 102.619, 99.662 100.656, 101.387 101.318 C 102.362 101.692, 102.623 101.275, 102.266 99.910 C 101.895 98.492, 102.160 98.124, 103.251 98.543 C 104.071 98.857, 105.384 98.474, 106.168 97.689 C 106.952 96.905, 108.585 95.949, 109.797 95.565 C 111.008 95.180, 112 94.446, 112 93.933 C 112 92.681, 111.270 92.754, 110.446 94.087 M 89.459 99.067 C 88.383 100.808, 89.608 101.177, 90.980 99.524 C 91.769 98.574, 91.845 98, 91.181 98 C 90.597 98, 89.821 98.480, 89.459 99.067 M 308.389 99.570 C 308.725 100.447, 309.007 101.689, 309.015 102.332 C 309.024 103.002, 309.444 102.861, 310 102 C 311.350 99.911, 311.242 99.307, 309.389 98.596 C 308.209 98.143, 307.941 98.404, 308.389 99.570 M 84.872 105.750 C 83.629 107.336, 83.664 107.371, 85.250 106.128 C 86.916 104.821, 87.445 104, 86.622 104 C 86.415 104, 85.627 104.787, 84.872 105.750 M 17.564 106.707 C 17.022 108.132, 17.136 108.247, 18.124 107.267 C 18.808 106.588, 19.115 105.781, 18.807 105.474 C 18.499 105.166, 17.940 105.721, 17.564 106.707 M 312.645 110 C 313.436 114.313, 314.005 115.126, 313.985 111.917 C 313.976 110.588, 313.527 108.825, 312.986 108 C 312.294 106.945, 312.193 107.538, 312.645 110 M 82.500 109 C 82.160 109.550, 82.359 110, 82.941 110 C 83.523 110, 84 109.550, 84 109 C 84 108.450, 83.802 108, 83.559 108 C 83.316 108, 82.840 108.450, 82.500 109 M 91 110.500 C 90.282 111.365, 90.185 112, 90.771 112 C 91.329 112, 92.045 111.325, 92.362 110.500 C 92.678 109.675, 92.781 109, 92.591 109 C 92.401 109, 91.685 109.675, 91 110.500 M 79 116 C 79 116.550, 79.450 117, 80 117 C 80.550 117, 81 116.550, 81 116 C 81 115.450, 80.550 115, 80 115 C 79.450 115, 79 115.450, 79 116 M 316.079 117.583 C 316.127 118.748, 316.364 118.985, 316.683 118.188 C 316.972 117.466, 316.936 116.603, 316.604 116.271 C 316.272 115.939, 316.036 116.529, 316.079 117.583 M 316.079 121.583 C 316.127 122.748, 316.364 122.985, 316.683 122.188 C 316.972 121.466, 316.936 120.603, 316.604 120.271 C 316.272 119.939, 316.036 120.529, 316.079 121.583 M 70.362 173.792 C 72.189 195.692, 82.802 217.009, 99.985 233.286 C 109.066 241.888, 123.990 251.602, 126.592 250.603 C 127.423 250.284, 127.858 250.421, 127.558 250.907 C 127.257 251.393, 127.707 252.057, 128.558 252.384 C 129.612 252.789, 129.861 252.583, 129.341 251.739 C 128.921 251.057, 129.797 251.298, 131.289 252.273 C 132.780 253.248, 134 253.834, 134 253.574 C 134 253.314, 135.518 253.736, 137.373 254.511 C 139.228 255.286, 144.966 256.425, 150.123 257.042 C 155.280 257.658, 160.175 258.380, 161 258.646 C 161.825 258.912, 162.572 258.988, 162.661 258.815 C 162.749 258.642, 163.118 237.688, 163.480 212.250 L 164.139 166 116.926 166 L 69.712 166 70.362 173.792 M 169 176.846 C 169 181.712, 169.323 189.924, 169.718 195.096 C 170.492 205.236, 170.374 205.441, 172.538 190.199 C 173.085 186.345, 173.661 185.040, 174.645 185.417 C 175.552 185.765, 176 185.147, 176 183.550 C 176 181.890, 177.092 180.488, 179.589 178.945 C 181.959 177.480, 182.771 176.477, 181.982 175.989 C 181.071 175.426, 181.095 175.059, 182.084 174.448 C 182.845 173.978, 183.544 174.133, 183.774 174.823 C 184.409 176.726, 186 176.171, 186 174.047 C 186 171.731, 191.052 170.023, 198 169.990 C 201.275 169.975, 202.092 169.706, 201 169 C 200.175 168.467, 192.637 168.024, 184.250 168.015 L 169 168 169 176.846 M 315.731 206.920 C 315.296 208.583, 315.426 208.974, 316.168 208.232 C 316.750 207.650, 317.028 206.585, 316.788 205.863 C 316.538 205.114, 316.085 205.568, 315.731 206.920 M 313.564 214.707 C 313.022 216.132, 313.136 216.247, 314.124 215.267 C 314.808 214.588, 315.115 213.781, 314.807 213.474 C 314.499 213.166, 313.940 213.721, 313.564 214.707 M 310.183 224.217 C 309.533 224.868, 309.003 226.322, 309.006 227.450 C 309.011 229.146, 309.274 228.999, 310.524 226.601 C 312.182 223.423, 312.031 222.369, 310.183 224.217 M 306.655 231.829 C 304.582 234.120, 304.537 235.115, 306.543 234.345 C 307.392 234.019, 307.846 233.512, 307.552 233.218 C 307.258 232.925, 307.519 232.080, 308.131 231.342 C 309.812 229.317, 308.552 229.732, 306.655 231.829 M 303.661 237.823 C 302.747 238.832, 302 240.017, 302 240.457 C 302 240.897, 300.200 243.894, 298 247.117 C 295.800 250.340, 294 253.459, 294 254.048 C 294 254.636, 293.480 254.797, 292.845 254.405 C 292.207 254.010, 291.960 254.126, 292.292 254.663 C 292.623 255.198, 291.792 256.823, 290.446 258.274 C 289.101 259.725, 288 261.457, 288 262.123 C 288 262.789, 287.708 263.042, 287.352 262.685 C 286.995 262.328, 284.970 264.360, 282.852 267.199 C 280.733 270.038, 279 272.120, 279 271.825 C 279 271.531, 275.913 274.262, 272.140 277.895 C 268.367 281.528, 263.470 285.850, 261.259 287.500 C 259.048 289.150, 257.414 290.801, 257.628 291.169 C 257.842 291.536, 256.720 292.122, 255.134 292.471 C 253.549 292.819, 251.229 294.192, 249.980 295.521 C 248.731 296.851, 247.255 297.658, 246.700 297.315 C 246.145 296.972, 245.990 297.174, 246.355 297.765 C 246.747 298.399, 245.492 299.343, 243.287 300.070 C 241.234 300.748, 238.948 301.909, 238.206 302.651 C 236.329 304.528, 236.916 304.366, 242.563 301.450 C 250.709 297.242, 252.512 296.051, 252.262 295.038 C 252.131 294.507, 252.694 294.329, 253.512 294.643 C 254.330 294.957, 255 294.716, 255 294.107 C 255 293.498, 255.338 293.096, 255.750 293.212 C 256.935 293.548, 261.103 290.977, 260.633 290.200 C 260.152 289.404, 262.618 286.867, 263.616 287.132 C 265.526 287.639, 289 264.490, 289 262.099 C 289 261.756, 290.117 260.636, 291.481 259.611 C 292.846 258.587, 293.751 257.406, 293.492 256.987 C 293.234 256.569, 293.687 255.675, 294.500 255 C 295.313 254.325, 295.761 253.422, 295.495 252.991 C 295.229 252.561, 295.684 251.952, 296.506 251.636 C 297.328 251.321, 298 250.347, 298 249.472 C 298 248.598, 298.413 248.137, 298.919 248.450 C 299.424 248.762, 300.135 247.660, 300.500 246 C 300.865 244.340, 301.483 243.180, 301.874 243.422 C 302.265 243.664, 302.654 242.948, 302.738 241.831 C 302.822 240.714, 303.702 239.207, 304.694 238.482 C 305.685 237.757, 306.232 236.899, 305.909 236.576 C 305.586 236.252, 304.574 236.813, 303.661 237.823 M 275.405 276.250 L 273.500 278.500 275.750 276.595 C 277.864 274.805, 278.455 274, 277.655 274 C 277.465 274, 276.453 275.012, 275.405 276.250 M 57.088 280.394 C 56.195 281.470, 56.297 282.154, 57.537 283.394 C 59.412 285.269, 59.977 285.336, 62 283.919 C 63.174 283.097, 63.011 283.006, 61.250 283.502 C 58.917 284.158, 58.044 282.552, 60.250 281.662 C 61.211 281.274, 61.198 281.140, 60.191 281.079 C 59.471 281.036, 59.160 280.550, 59.500 280 C 60.442 278.475, 58.404 278.808, 57.088 280.394 M 71.652 290.464 C 70.781 292.735, 70.830 293.223, 71.866 292.583 C 72.343 292.288, 73.522 292.919, 74.487 293.985 C 76.020 295.679, 83.235 300, 84.531 300 C 84.789 300, 85 299.550, 85 299 C 85 298.450, 83.987 297.993, 82.750 297.985 C 80.931 297.972, 80.787 297.784, 82 297 C 83.282 296.172, 83.246 296.028, 81.750 296.015 C 80.787 296.007, 80 295.495, 80 294.878 C 80 294.146, 79.411 294.233, 78.308 295.128 C 77.377 295.882, 76.888 296.045, 77.219 295.489 C 77.551 294.933, 77.188 293.609, 76.411 292.548 C 75.396 291.159, 74.990 291.022, 74.965 292.059 C 74.945 292.874, 74.359 292.472, 73.617 291.133 C 72.477 289.077, 72.218 288.989, 71.652 290.464 M 86.540 299.935 C 85.915 300.947, 86.570 301.390, 88.278 301.109 C 88.706 301.039, 89.305 301.632, 89.611 302.428 C 89.916 303.223, 90.803 303.629, 91.583 303.330 C 92.362 303.031, 93 303.176, 93 303.652 C 93 305.348, 96.462 306.719, 98.500 305.831 C 100.293 305.049, 100.261 305.005, 98.189 305.402 C 96.805 305.667, 95.665 305.290, 95.346 304.460 C 95.054 303.699, 93.844 302.781, 92.658 302.420 C 91.471 302.059, 89.757 301.112, 88.849 300.317 C 87.741 299.345, 86.982 299.220, 86.540 299.935 M 230 306.393 C 230 306.609, 230.698 307.054, 231.552 307.382 C 232.442 307.723, 232.843 307.555, 232.493 306.989 C 231.906 306.038, 230 305.583, 230 306.393 M 98 307.391 C 98 307.605, 99.543 307.961, 101.430 308.182 C 103.316 308.402, 104.640 308.226, 104.371 307.791 C 103.887 307.008, 98 306.638, 98 307.391 M 109.559 311.468 C 110.626 312.276, 112.400 312.933, 113.500 312.929 C 114.885 312.924, 114.465 312.472, 112.135 311.461 C 107.866 309.607, 107.102 309.610, 109.559 311.468 M 219 311 C 218.175 311.533, 217.950 311.969, 218.500 311.969 C 219.050 311.969, 220.175 311.533, 221 311 C 221.825 310.467, 222.050 310.031, 221.500 310.031 C 220.950 310.031, 219.825 310.467, 219 311 M 116.813 313.683 C 117.534 313.972, 118.397 313.936, 118.729 313.604 C 119.061 313.272, 118.471 313.036, 117.417 313.079 C 116.252 313.127, 116.015 313.364, 116.813 313.683 M 119.813 315.683 C 120.534 315.972, 121.397 315.936, 121.729 315.604 C 122.061 315.272, 121.471 315.036, 120.417 315.079 C 119.252 315.127, 119.015 315.364, 119.813 315.683 " stroke="none" fill="black" fill-rule="evenodd"/>
</svg>