<svg xmlns="http://www.w3.org/2000/svg" width="577" height="576" viewBox="0 0 577 576" version="1.1">
	<path d="M 267.967 1.048 C 181.274 7.292, 102.101 52.463, 52.221 124.139 C -15.984 222.146, -15.820 354.180, 52.627 452.073 C 72.701 480.782, 99.787 507.347, 128.500 526.488 C 177.239 558.978, 230.199 574.980, 289 574.981 C 355.491 574.983, 417.869 552.834, 470 510.710 C 482.085 500.945, 503.463 479.393, 513.359 467 C 553.534 416.684, 576.015 352.432, 575.988 288 C 575.930 147.052, 473.996 26.978, 335 4.124 C 312.777 0.470, 290.309 -0.561, 267.967 1.048 M 268 29.689 C 249.318 31.099, 224.677 36.182, 206.279 42.420 C 165.677 56.188, 132.878 76.893, 102.981 107.629 C 37.010 175.454, 13.522 270.559, 40.200 361.842 C 58.735 425.262, 103.481 481.086, 162.298 514.164 C 168.237 517.504, 173.287 520.046, 173.520 519.814 C 173.753 519.581, 172.493 517.181, 170.722 514.482 C 167.434 509.472, 166.080 508.692, 156 505.996 C 152.936 505.177, 150.159 503.400, 147.300 500.430 C 144.989 498.031, 141.577 495.432, 139.717 494.655 C 136.009 493.106, 132 488.662, 132 486.101 C 132 485.134, 133.987 483.529, 136.888 482.151 C 142.572 479.453, 149.441 473.010, 151.976 468 C 152.950 466.075, 154.491 461.914, 155.400 458.753 C 156.922 453.467, 157.440 452.811, 161.867 450.567 C 164.514 449.226, 168.056 446.561, 169.738 444.646 C 172.610 441.374, 177 431.628, 177 428.522 C 177 427.750, 177.345 426.905, 177.766 426.644 C 179.108 425.815, 189.429 433.392, 190.764 436.186 C 191.718 438.181, 193.395 439.264, 197.283 440.394 C 201.365 441.581, 202.935 442.642, 204.404 445.208 C 208.814 452.911, 211.848 454.456, 216.535 451.385 C 217.891 450.497, 219 449.992, 219 450.263 C 219 451.890, 215.472 458.864, 213.654 460.829 C 212.469 462.111, 211.039 464.800, 210.475 466.805 C 209.285 471.035, 205.551 473.606, 201.921 472.695 C 199.135 471.996, 196.577 468.082, 195.627 463.066 C 194.221 455.641, 188.176 453.670, 182.923 458.923 C 179.496 462.350, 179.140 466.140, 181.977 468.977 C 184.032 471.032, 185.579 470.879, 189.750 468.210 C 191.794 466.902, 191.999 466.941, 191.994 468.635 C 191.983 472.503, 189.840 478.015, 187.956 479.023 C 186.846 479.618, 186 481.112, 186 482.478 C 186 484.842, 182.767 488, 180.347 488 C 179.683 488, 178.995 487.033, 178.820 485.850 C 178.644 484.668, 177.263 482.780, 175.750 481.655 L 173 479.609 170.250 481.655 C 165.770 484.987, 165.922 491.732, 170.523 493.829 C 171.937 494.473, 175.562 495, 178.578 495 C 185.766 495, 186.335 496.485, 182.191 504.433 C 180.451 507.770, 178.132 512.852, 177.037 515.727 C 174.713 521.832, 173.594 520.704, 188 526.777 C 233.359 545.902, 285.317 551.606, 334.500 542.861 C 430.843 525.731, 510.588 453.459, 537.377 358.995 C 544.412 334.185, 546.984 315.184, 546.984 288 C 546.984 260.816, 544.412 241.815, 537.377 217.005 C 505.775 105.570, 402.212 27.882, 287 29.185 C 279.025 29.276, 270.475 29.502, 268 29.689 M 285.930 36.250 C 285.397 38.155, 282.341 62.608, 282.600 62.895 C 282.796 63.112, 285.103 63.488, 287.728 63.731 C 292.374 64.161, 292.600 64.051, 296.300 59.586 C 298.923 56.420, 300.858 55, 302.550 55 C 305.615 55, 305.618 55.402, 302.689 76.500 L 300.469 92.500 296.813 92.806 C 292.817 93.140, 293.144 92.389, 291.428 105.149 C 290.823 109.650, 290.894 109.816, 293.652 110.375 C 299.966 111.655, 327.276 115.075, 328.343 114.719 C 328.972 114.509, 329.957 110.673, 330.531 106.195 C 331.643 97.537, 331.432 97, 326.918 97 C 324.497 97, 324.495 97.117, 327.173 76.202 L 329.387 58.904 331.943 59.202 C 333.945 59.435, 335.093 60.723, 337.232 65.134 C 339.842 70.514, 340.172 70.799, 344.574 71.459 C 347.109 71.839, 349.373 71.960, 349.605 71.729 C 349.837 71.497, 350.838 65.393, 351.831 58.165 L 353.635 45.022 350.568 44.483 C 346.922 43.842, 287.978 36, 286.808 36 C 286.364 36, 285.969 36.112, 285.930 36.250 M 236.750 41.794 C 233.588 42.674, 231 43.920, 231 44.561 C 231 45.246, 229.420 45.727, 227.169 45.727 C 208.987 45.727, 197.734 63.245, 205.750 79.071 C 209.683 86.835, 213.437 88.634, 229.379 90.391 C 236.341 91.158, 242.727 92.358, 243.569 93.057 C 245.778 94.891, 244.925 98.987, 241.859 101.265 C 239.561 102.973, 238.759 103.076, 235.672 102.057 C 233.721 101.413, 230.940 99.954, 229.491 98.814 C 226.900 96.776, 226.751 96.771, 220.428 98.482 C 215.813 99.731, 214.009 100.684, 214.032 101.861 C 214.072 103.923, 219.381 121.714, 220.201 122.534 C 221.192 123.525, 235 119.023, 235.005 117.708 C 235.008 116.870, 237.385 116.493, 242.755 116.477 C 249.435 116.458, 251.241 116.047, 255.892 113.491 C 265.412 108.259, 268.639 100.169, 265.513 89.376 C 264.232 84.953, 262.730 82.461, 259.439 79.299 C 254.302 74.363, 248.573 72.370, 235.652 71.023 C 222.755 69.679, 219.237 66.673, 224.455 61.455 C 227.734 58.175, 230.007 58.359, 235.202 62.324 L 239.557 65.649 245.029 64.167 C 248.038 63.352, 250.636 62.583, 250.801 62.458 C 251.594 61.861, 244.556 40.012, 243.599 40.097 C 242.994 40.150, 239.912 40.913, 236.750 41.794 M 386.746 64.023 C 362.792 70.069, 350.501 95.379, 360.816 117.421 C 367.998 132.769, 383.330 141.028, 400.435 138.763 C 412.957 137.105, 423.827 129.165, 429.560 117.487 C 432.219 112.072, 432.500 110.543, 432.500 101.479 C 432.500 92.179, 432.264 90.979, 429.226 84.807 C 425.076 76.379, 417.211 68.971, 409.248 65.992 C 402.695 63.540, 392.272 62.628, 386.746 64.023 M 157 75.150 C 149.483 76.360, 141.910 80.248, 136.464 85.694 C 117.059 105.098, 124.060 138.179, 149.656 148.037 C 157.710 151.139, 169.267 151.148, 177.285 148.059 C 185.352 144.951, 193.861 136.877, 197.599 128.782 C 200.188 123.175, 200.500 121.425, 200.500 112.500 C 200.500 103.761, 200.164 101.784, 197.840 96.825 C 190.479 81.124, 174.053 72.406, 157 75.150 M 396.542 81.720 C 392.344 82.807, 390.089 85.420, 384.424 95.766 C 380.094 103.676, 378.573 107.464, 378.643 110.162 C 378.906 120.202, 391.249 125.478, 398.203 118.524 C 402.380 114.348, 411 97.610, 411 93.678 C 411 86.934, 407.734 82.836, 401.485 81.738 C 399.843 81.449, 397.619 81.441, 396.542 81.720 M 153.415 94.409 C 148.722 96.471, 146 100.556, 146 105.537 C 146 109.287, 146.841 110.891, 152.937 118.780 C 161.294 129.593, 164.162 132, 168.685 132 C 175.869 132, 181 126.849, 181 119.637 C 181 116.900, 179.526 114.220, 173.961 106.837 C 170.089 101.702, 165.927 96.766, 164.711 95.870 C 161.437 93.456, 156.916 92.871, 153.415 94.409 M 459.290 115.929 C 452.633 121.281, 452.189 121.871, 453.508 123.613 C 454.294 124.651, 454.951 126.221, 454.968 127.103 C 455.001 128.765, 429.903 149, 427.809 149 C 427.160 149, 425.658 148.088, 424.470 146.972 L 422.312 144.945 416.406 149.523 C 413.158 152.041, 410.362 154.493, 410.192 154.973 C 410.023 155.453, 413.790 160.851, 418.564 166.968 C 426.266 176.838, 427.426 177.936, 428.872 176.721 C 429.767 175.968, 432.648 173.635, 435.273 171.536 C 439.948 167.800, 440.014 167.670, 438.447 165.280 C 437.568 163.937, 437.056 162.295, 437.311 161.631 C 437.782 160.406, 454 147.485, 454 148.336 C 454 148.591, 451.753 157.957, 449.007 169.150 C 441.838 198.366, 441.870 197.162, 448.049 204.811 C 451.551 209.148, 453.515 210.839, 454.324 210.216 C 454.971 209.718, 464.555 202.265, 475.622 193.655 C 486.689 185.045, 496.472 178, 497.363 178 C 498.254 178, 499.545 178.900, 500.232 180 C 500.919 181.100, 501.744 182, 502.066 182 C 502.527 182, 513.346 173.937, 514.856 172.468 C 515.418 171.921, 497.898 150, 496.899 150 C 496.406 150, 493.299 152.099, 489.996 154.665 C 484.535 158.906, 484.125 159.481, 485.494 160.994 C 486.322 161.909, 487 163.390, 487 164.286 C 487 165.941, 473.344 177.677, 472.454 176.787 C 472.186 176.519, 473.963 168.695, 476.403 159.400 C 478.843 150.105, 481.386 139.961, 482.055 136.857 L 483.270 131.214 474.990 120.607 C 470.436 114.773, 466.663 110.030, 466.605 110.066 C 466.547 110.102, 463.255 112.741, 459.290 115.929 M 274 118.069 C 252.581 119.848, 232.814 125.464, 212.500 135.542 C 152.289 165.412, 115.418 227.809, 118.290 294.971 C 121.624 372.916, 177.785 438.761, 254.388 454.535 C 299.252 463.774, 345.719 454.207, 385 427.644 C 398.057 418.815, 417.839 399.334, 427.289 386 C 435.243 374.777, 445.632 354.226, 449.912 341.249 C 458.885 314.039, 460.907 282.201, 455.380 255.153 C 442.914 194.146, 400.057 145.681, 341.261 126.103 C 327.901 121.654, 317.357 119.513, 301.500 118.030 C 289.474 116.906, 287.978 116.908, 274 118.069 M 266 124.728 C 252.519 126.299, 230.721 133.003, 216.500 139.952 C 174.421 160.512, 142.153 199.161, 130.049 243.500 C 128.847 247.900, 127.640 252.287, 127.365 253.250 C 127.063 254.308, 127.407 255, 128.236 255 C 128.990 255, 131.502 257.687, 133.818 260.972 C 137.802 266.622, 138.204 266.910, 141.265 266.308 C 149.972 264.595, 149.805 265.041, 144.091 258.790 C 136.888 250.909, 139.470 250.074, 147.351 257.736 L 153.500 263.715 157.895 262.379 C 160.313 261.644, 162.445 260.888, 162.634 260.699 C 162.823 260.510, 160.058 258.149, 156.489 255.454 C 152.920 252.758, 150 250.229, 150 249.835 C 150 247.538, 152.610 248.637, 158.970 253.614 C 166.726 259.683, 167.488 259.818, 175.327 256.519 L 179.154 254.909 176.827 253.129 C 175.547 252.150, 172.322 249.871, 169.660 248.064 C 166.193 245.712, 165.127 244.473, 165.900 243.700 C 166.674 242.926, 169.118 244.112, 174.514 247.879 C 181.560 252.799, 182.257 253.070, 185.274 252.068 C 187.048 251.479, 190.040 250.057, 191.923 248.908 L 195.346 246.819 189.004 243.152 C 182.965 239.661, 180.397 237, 183.067 237 C 183.745 237, 187.358 238.763, 191.097 240.919 L 197.893 244.837 199.582 239.754 C 201.402 234.275, 201.486 234.497, 196.411 231.438 C 195.406 230.832, 194.964 229.868, 195.381 229.192 C 195.933 228.300, 196.828 228.377, 199.007 229.504 C 202.745 231.437, 202.668 231.457, 203.458 228.312 C 203.829 226.834, 206.283 221.096, 208.910 215.562 C 212.608 207.775, 214.826 204.480, 218.717 200.991 C 223.593 196.618, 223.813 196.180, 226.018 186.491 C 230.411 167.186, 230.622 167.089, 252.364 174.357 C 268.607 179.787, 282 185.471, 282 186.934 C 282 187.368, 280.205 191.553, 278.012 196.233 C 272.088 208.874, 271.246 213.513, 273.570 220.686 C 276.654 230.203, 276.087 233.981, 269.654 246.747 C 258.511 268.859, 249.006 296.074, 248.260 308 C 247.809 315.203, 247.923 315.698, 251.145 320.500 C 253.339 323.769, 258.135 328.215, 265 333.342 C 282.574 346.467, 301.452 361.610, 306.366 366.523 C 312.380 372.537, 315.376 377.751, 319.582 389.519 C 323.160 399.528, 323.855 405.059, 321.750 406.773 C 318.907 409.088, 303.347 411.422, 290.500 411.461 L 277.500 411.500 266.828 405.352 L 256.155 399.203 251.136 401.529 C 246.833 403.522, 245.980 404.400, 245.164 407.677 C 243.573 414.062, 243.175 416, 243.455 416 C 243.603 416, 246.701 414.650, 250.340 413 C 257.434 409.783, 259 409.423, 259 411.008 C 259 411.563, 255.512 413.697, 251.250 415.752 C 246.988 417.806, 243.317 419.598, 243.093 419.734 C 242.660 419.997, 241.082 429.349, 241.409 429.717 C 241.515 429.837, 244.469 428.171, 247.974 426.016 C 253.864 422.394, 256 421.843, 256 423.945 C 256 424.400, 252.872 426.630, 249.050 428.901 C 241.151 433.594, 241.496 433.209, 240.565 438.361 L 239.868 442.222 245.611 439.111 C 251.961 435.672, 253.002 435.410, 252.997 437.250 C 252.995 437.938, 250.520 439.834, 247.497 441.465 C 244.473 443.096, 242 444.712, 242 445.057 C 242 445.975, 260.151 449.828, 269.974 450.994 C 355.040 461.093, 434.868 401.449, 450.116 316.398 C 451.750 307.288, 452.259 300.352, 452.288 286.798 C 452.330 267.109, 452.010 266, 446.292 266 L 442.829 266 445.406 270.610 C 447.828 274.944, 448.065 277.776, 445.893 276.434 C 445.360 276.104, 443.548 273.397, 441.867 270.417 L 438.809 265 432.905 265 C 429.657 265, 427 265.264, 427 265.587 C 427 265.909, 428.432 268.167, 430.182 270.604 C 432.428 273.732, 433.052 275.348, 432.302 276.098 C 431.553 276.847, 429.985 275.371, 426.975 271.080 L 422.710 265 416.855 265 C 413.635 265, 411 265.385, 411 265.856 C 411 266.327, 412.575 268.775, 414.500 271.296 C 416.425 273.817, 418 276.357, 418 276.940 C 418 279.350, 415.729 277.653, 411.271 271.913 L 406.544 265.826 401.115 266.505 C 392.485 267.583, 392.453 267.644, 397.477 273.525 C 402.382 279.266, 402.734 280, 400.580 280 C 399.799 280, 396.888 277.450, 394.110 274.334 L 389.060 268.668 383.530 269.906 C 380.489 270.587, 378 271.466, 378 271.859 C 378 272.253, 380.250 274.791, 383 277.500 C 385.750 280.209, 388 282.779, 388 283.212 C 388 285.334, 384.885 283.442, 379.622 278.123 L 373.806 272.246 368.903 273.814 C 366.206 274.676, 364 275.691, 364 276.069 C 364 276.448, 366.475 278.872, 369.500 281.456 C 372.525 284.040, 375 286.570, 375 287.077 C 375 289.109, 372.191 287.696, 366.042 282.574 L 359.585 277.193 354.580 279.165 C 346.174 282.479, 346.209 282.196, 353.514 287.937 C 358.073 291.519, 359.879 293.521, 359.183 294.217 C 358.486 294.914, 356.143 293.714, 351.830 290.450 C 348.348 287.815, 345.034 285.311, 344.465 284.885 C 343.895 284.460, 340.589 285.712, 337.118 287.668 L 330.807 291.224 335.073 294.048 C 340.417 297.586, 351.024 300.445, 366.500 302.519 C 381.018 304.465, 386.569 306.006, 393.905 310.127 C 404.611 316.142, 412.156 324.350, 418.097 336.447 C 421.824 344.035, 422.975 349.969, 421.235 352.619 C 419.003 356.018, 398.609 363.402, 388.414 364.502 C 380.662 365.338, 367.693 363.313, 336.500 356.394 C 322.750 353.344, 305.758 350.002, 298.741 348.969 C 284.625 346.889, 280.743 345.605, 285.198 344.487 C 286.826 344.078, 287.672 343.308, 287.366 342.511 C 287.090 341.793, 286.558 335.652, 286.182 328.864 C 285.557 317.560, 285.332 316.497, 283.500 316.222 C 282.400 316.057, 275.777 314.050, 268.781 311.763 C 261.786 309.476, 255.816 307.851, 255.514 308.153 C 255.212 308.454, 254.619 311.356, 254.195 314.601 C 253.444 320.349, 253.387 320.436, 251.984 318 C 251.104 316.472, 250.577 312.974, 250.628 309 C 250.761 298.516, 262.768 264.826, 273.913 243.664 C 278.548 234.864, 279.127 229.664, 276.372 221.580 C 274.078 214.847, 275.056 208.956, 280.394 197.346 C 284.233 188.998, 284.701 187.322, 283.554 186.024 C 282.813 185.186, 281.644 180.315, 280.955 175.199 C 280.139 169.143, 279.361 166.239, 278.725 166.875 C 278.096 167.504, 278.079 170.550, 278.679 175.426 C 279.191 179.592, 279.494 183, 279.352 183 C 279.210 183, 277.966 182.486, 276.587 181.858 C 274.090 180.720, 273.603 179.159, 272.758 169.577 C 272.616 167.970, 271.882 166.451, 271.126 166.202 C 270.025 165.840, 269.836 167.076, 270.175 172.405 C 270.539 178.124, 270.381 178.969, 269.049 178.417 C 268.197 178.063, 266.712 177.547, 265.750 177.270 C 264.411 176.885, 263.996 175.679, 263.985 172.133 C 263.976 169.585, 263.496 166.825, 262.916 166 C 262.144 164.899, 261.970 166.029, 262.264 170.250 C 262.484 173.412, 262.544 176, 262.397 176 C 262.250 176, 260.976 175.561, 259.565 175.025 C 257.481 174.232, 257 173.388, 257 170.525 C 257 168.586, 256.499 167, 255.887 167 C 255.218 167, 254.949 168.199, 255.213 170 C 255.544 172.255, 255.262 172.996, 254.077 172.985 C 251.659 172.961, 250.227 171.727, 249.063 168.665 C 246.231 161.218, 248.829 157, 256.245 157 C 258.769 157, 260.983 156.552, 261.167 156.005 C 261.350 155.457, 265.961 153.320, 271.413 151.255 L 281.326 147.500 283.102 142.250 C 284.079 139.363, 284.737 137, 284.564 137 C 284.391 137, 280.794 138.575, 276.569 140.500 C 268.099 144.360, 267 144.612, 267 142.696 C 267 141.979, 271.163 139.542, 276.250 137.281 C 284.731 133.512, 285.606 132.858, 286.778 129.420 C 287.481 127.357, 287.931 125.295, 287.778 124.836 C 287.625 124.378, 284.647 125.352, 281.160 127.002 C 274.063 130.358, 273 130.577, 273 128.681 C 273 127.956, 274.462 126.635, 276.250 125.745 L 279.500 124.128 274.500 124.224 C 271.750 124.277, 267.925 124.504, 266 124.728 M 297 124.411 C 297 124.795, 298.800 127.760, 301 131 C 304.836 136.649, 305.997 140, 304.117 140 C 303.632 140, 301.329 137.075, 299 133.500 C 296.671 129.925, 294.407 127, 293.970 127 C 293.533 127, 292.868 128.822, 292.492 131.049 C 291.875 134.697, 292.311 135.970, 296.904 143.928 C 302.490 153.607, 302.635 154, 300.613 154 C 299.850 154, 297.277 150.595, 294.896 146.433 L 290.567 138.866 288.784 144.110 C 287.123 148.997, 287.113 149.528, 288.647 151.927 C 289.552 153.342, 291.771 155.745, 293.579 157.267 C 296.996 160.144, 297.090 160.436, 300.065 177.370 C 301.085 183.180, 301.926 184.975, 305.513 189.015 C 307.846 191.641, 310.469 195.750, 311.342 198.145 C 312.215 200.540, 315.231 218.025, 318.046 237 C 320.860 255.975, 323.543 273.525, 324.009 276 C 325.146 282.037, 326.812 286.234, 327.824 285.609 C 328.279 285.328, 330.600 280.126, 332.981 274.049 C 335.362 267.972, 337.664 263, 338.096 263 C 340.072 263, 339.706 265.341, 336.476 273.351 C 334.564 278.092, 333 282.210, 333 282.502 C 333 282.795, 335.229 281.904, 337.953 280.524 C 342.481 278.229, 343.434 277.068, 349.041 267.007 C 352.414 260.953, 355.585 256, 356.087 256 C 357.966 256, 356.769 259.725, 352.553 267 C 350.163 271.125, 348.529 274.623, 348.923 274.773 C 349.317 274.923, 351.939 274.023, 354.751 272.773 C 358.971 270.897, 361.195 268.798, 367.493 260.750 C 371.689 255.387, 375.469 251, 375.894 251 C 378.274 251, 377.305 253.102, 371.502 260.534 L 365.058 268.787 369.779 267.420 C 373.631 266.305, 375.986 264.483, 382.569 257.527 C 390.004 249.671, 393 247.498, 393 249.963 C 393 250.493, 390.214 253.905, 386.810 257.544 L 380.619 264.162 384.560 263.449 C 389.980 262.469, 391.316 261.666, 400.800 253.685 C 406.541 248.853, 409.421 247.021, 410.139 247.739 C 410.858 248.458, 409.018 250.585, 404.172 254.639 C 400.319 257.862, 397.267 260.601, 397.392 260.725 C 397.516 260.849, 399.940 260.676, 402.779 260.340 C 407.224 259.813, 408.883 258.919, 414.720 253.897 C 421.138 248.378, 424 246.843, 424 248.922 C 424 249.430, 421.645 251.905, 418.767 254.422 L 413.534 259 418.890 259 C 423.639 259, 424.963 258.489, 430.565 254.491 C 438.106 249.109, 440 248.256, 440 250.237 C 440 251.034, 437.746 253.220, 434.991 255.093 L 429.982 258.500 435.741 259.009 C 440.285 259.411, 442.290 259.094, 445.242 257.509 C 447.301 256.404, 448.988 254.816, 448.992 253.980 C 448.997 253.144, 448.081 249.094, 446.959 244.980 C 430.841 185.926, 382.513 140.138, 322.487 127.051 C 312.684 124.914, 297 123.289, 297 124.411 M 95 133.121 C 90.510 134.906, 86.947 139.225, 74.067 158.500 C 67.083 168.950, 61.071 178.003, 60.707 178.618 C 60.314 179.281, 62.852 181.603, 66.939 184.320 L 73.833 188.905 75.439 186.452 C 76.323 185.104, 77.455 184, 77.954 184 C 80.069 184, 109 204.085, 109 205.553 C 109 206.421, 108.542 207.987, 107.982 209.033 C 107.099 210.684, 107.851 211.529, 113.698 215.451 C 117.402 217.936, 120.734 219.638, 121.104 219.234 C 121.474 218.830, 128.096 208.962, 135.819 197.304 C 151.499 173.636, 152.671 170.663, 149.544 162.476 C 146.219 153.769, 133.039 145.734, 124.983 147.504 C 123.343 147.864, 122 147.750, 122 147.251 C 122 146.751, 120.658 144.316, 119.017 141.840 C 113.736 133.867, 102.961 129.955, 95 133.121 M 272.180 154.148 C 269.253 155.273, 267.005 156.338, 267.184 156.517 C 267.362 156.695, 269.975 156.540, 272.991 156.171 C 277.086 155.670, 278.559 155.057, 278.810 153.750 C 279.227 151.583, 278.787 151.610, 272.180 154.148 M 285 154 C 285 154.550, 285.477 155, 286.059 155 C 286.641 155, 286.840 154.550, 286.500 154 C 286.160 153.450, 285.684 153, 285.441 153 C 285.198 153, 285 153.450, 285 154 M 94.633 158.979 C 93.185 161.167, 92.006 163.304, 92.012 163.729 C 92.026 164.582, 98.525 169.007, 99.736 168.988 C 100.156 168.981, 101.513 167.412, 102.750 165.502 C 106.565 159.613, 105.327 155, 99.933 155 C 97.931 155, 96.609 155.993, 94.633 158.979 M 285.508 166.987 C 285.172 167.530, 285.172 170.793, 285.507 174.237 C 286.368 183.086, 286.954 185.446, 288.023 184.377 C 289.109 183.291, 288.062 166, 286.910 166 C 286.475 166, 285.843 166.444, 285.508 166.987 M 292.607 168.430 C 291.778 171.735, 292.984 184, 294.138 184 C 295.255 184, 295.236 168.920, 294.117 167.155 C 293.488 166.163, 293.092 166.497, 292.607 168.430 M 119.349 171.205 C 118.203 172.467, 116.497 174.709, 115.559 176.187 L 113.853 178.874 118.023 181.634 L 122.194 184.394 124.070 181.947 C 127.942 176.895, 129.024 173.682, 127.589 171.500 C 125.680 168.598, 121.842 168.460, 119.349 171.205 M 235.324 176.108 C 234.677 176.888, 233.652 179.771, 233.045 182.513 C 232.439 185.256, 231.457 189.664, 230.864 192.309 C 229.871 196.734, 230.182 199.151, 231.567 197.766 C 231.879 197.455, 232.775 194.117, 233.559 190.350 C 234.342 186.582, 235.477 182.298, 236.080 180.829 C 236.684 179.360, 237.025 177.378, 236.839 176.423 C 236.551 174.950, 236.323 174.903, 235.324 176.108 M 240.170 185.750 C 237.572 194.069, 236.300 201.928, 237.782 200.500 C 239.599 198.750, 244.840 179, 243.488 179 C 242.823 179, 241.330 182.037, 240.170 185.750 M 249.304 182.226 C 247.851 184.112, 243.687 200.586, 244.268 202.152 C 244.888 203.826, 244.993 203.548, 248.447 191.111 C 251.020 181.844, 251.224 179.733, 249.304 182.226 M 255.532 186.269 C 253.095 192.102, 249.583 204.916, 250.241 205.574 C 251.524 206.858, 252.835 204.854, 254.050 199.753 C 254.737 196.864, 256.105 192.147, 257.089 189.271 C 259.116 183.345, 257.808 180.823, 255.532 186.269 M 263.517 186.973 C 261.772 189.796, 257.229 209.023, 258.169 209.605 C 259.815 210.622, 260.577 209.007, 263.535 198.227 C 265.529 190.964, 266.043 187.643, 265.290 186.890 C 264.538 186.138, 264.018 186.162, 263.517 186.973 M 269.238 197.750 C 265.704 207.074, 264.424 211.928, 265.874 210.500 C 266.781 209.607, 274 191.872, 274 190.538 C 274 190.242, 273.589 190, 273.088 190 C 272.586 190, 270.853 193.488, 269.238 197.750 M 189.116 256.869 C 183.876 259.429, 183.621 259.753, 179.616 268.919 C 177.352 274.100, 174.938 278.525, 174.250 278.753 C 172.294 279.400, 172.736 277.410, 176.453 268.833 C 178.352 264.450, 179.577 261.008, 179.175 261.182 C 178.773 261.357, 176.045 262.394, 173.113 263.487 C 167.913 265.425, 167.673 265.691, 163.318 274.363 C 159.984 281, 158.565 282.965, 157.717 282.117 C 156.868 281.268, 157.406 279.306, 159.839 274.372 C 161.631 270.738, 162.940 267.607, 162.748 267.415 C 162.126 266.792, 154.548 269.318, 152.901 270.697 C 152.022 271.434, 149.322 274.942, 146.901 278.494 C 142.837 284.458, 140 286.656, 140 283.841 C 140 283.203, 141.841 280.244, 144.090 277.264 C 146.340 274.285, 147.974 271.641, 147.722 271.389 C 147.470 271.137, 145.294 271.373, 142.886 271.914 C 139.273 272.726, 137.224 274.260, 131.157 280.699 L 123.806 288.500 124.443 299 C 127.546 350.152, 156.738 398.971, 200.768 426.647 C 208.963 431.798, 220.913 437.949, 226.869 440.083 C 229.326 440.963, 229.281 440.840, 226.190 438.239 C 224.369 436.707, 223.207 435.126, 223.607 434.727 C 224.781 433.552, 225.521 433.838, 229.500 437 C 231.576 438.650, 233.663 440, 234.138 440 C 234.612 440, 235 438.297, 235 436.216 C 235 432.954, 234.241 431.682, 229.500 427 C 224.507 422.069, 222.701 419, 224.792 419 C 225.227 419, 227.571 421.025, 230 423.500 C 232.429 425.975, 234.714 428, 235.078 428 C 235.442 428, 235.977 425.900, 236.266 423.334 C 236.758 418.963, 236.439 418.138, 231.226 410.304 C 227.223 404.289, 225.965 401.635, 226.745 400.855 C 227.526 400.074, 229.184 401.805, 232.649 407.015 L 237.467 414.261 238.821 408.715 L 240.175 403.168 234.893 395.341 C 231.988 391.036, 229.663 386.818, 229.727 385.968 C 229.964 382.824, 205.262 371.174, 187.210 365.916 C 169.843 360.857, 163.167 356.704, 159.402 348.617 C 157.666 344.889, 157.017 341.735, 157.011 337 C 156.999 328.401, 159.989 322.205, 171.972 306 C 177.055 299.125, 182.268 291.423, 183.556 288.884 C 185.636 284.785, 195.321 254.933, 194.733 254.435 C 194.605 254.327, 192.077 255.422, 189.116 256.869 M 126.673 258.694 C 126.399 259.687, 125.890 262.188, 125.542 264.250 L 124.909 268 129.455 268 C 131.955 268, 134 267.661, 134 267.247 C 134 266.833, 132.463 264.332, 130.585 261.691 C 127.870 257.872, 127.068 257.258, 126.673 258.694 M 448.500 260 C 448.840 260.550, 449.316 261, 449.559 261 C 449.802 261, 450 260.550, 450 260 C 450 259.450, 449.523 259, 448.941 259 C 448.359 259, 448.160 259.450, 448.500 260 M 124.402 275.395 C 124.108 276.162, 124.009 278.418, 124.183 280.407 L 124.500 284.025 128.805 279.012 L 133.111 274 129.024 274 C 126.451 274, 124.739 274.517, 124.402 275.395 M 169.541 317.134 C 163.506 324.306, 160.745 334.498, 162.419 343.422 C 163.238 347.784, 167.977 353.438, 172.937 355.968 C 176.903 357.991, 187.703 360.301, 189.116 359.428 C 189.602 359.128, 190 357.391, 190 355.569 C 190 351.343, 194.327 334.201, 196.412 330.171 C 198.472 326.187, 198.416 325, 196.168 325 C 195.160 325, 189.423 322.530, 183.418 319.512 C 177.413 316.494, 172.428 314.019, 172.339 314.012 C 172.250 314.005, 170.991 315.410, 169.541 317.134 M 391.500 327.012 C 387.100 329.154, 382.262 331.161, 380.750 331.472 C 377.617 332.117, 377.173 334.463, 379.364 338.800 C 380.115 340.285, 381.976 345.208, 383.501 349.741 C 385.026 354.274, 386.907 358.508, 387.681 359.150 C 389.735 360.855, 410.994 353.742, 414.985 350.014 C 418.415 346.810, 418.243 345.384, 413.226 335.447 C 409.367 327.804, 404.938 322.981, 401.849 323.059 C 400.557 323.091, 395.900 324.870, 391.500 327.012 M 299.500 377 C 297.850 377.420, 293.405 377.817, 289.621 377.882 L 282.742 378 283.329 382.750 C 283.652 385.363, 284.185 390.875, 284.515 395 C 285.380 405.842, 285.657 406.701, 288.456 407.236 C 292.489 408.007, 310.756 406.129, 314.521 404.556 C 319.034 402.670, 319.095 399.776, 314.853 388.775 C 310.241 376.815, 307.746 374.902, 299.500 377 M 446.814 378.044 C 445.887 378.585, 443.532 381.655, 441.582 384.865 C 438.691 389.623, 436.906 391.304, 431.922 393.961 L 425.808 397.219 429.286 400.860 C 434.164 405.966, 435.203 408.386, 434.398 412.764 C 433.577 417.233, 432.653 417.965, 427.806 417.985 C 423.301 418.003, 419.088 414.705, 417.451 409.878 L 416.305 406.500 413.510 412 C 411.973 415.025, 408.358 419.858, 405.477 422.739 C 402.596 425.621, 400.002 428.883, 399.713 429.989 C 399.224 431.859, 399.667 432, 406.029 432 C 413.790 432, 417.404 433.086, 421 436.501 C 423.301 438.686, 423.882 438.793, 428.289 437.848 C 432.217 437.006, 433.515 437.107, 435.504 438.411 C 439.090 440.760, 440.105 443.351, 440.743 451.781 C 441.158 457.274, 441.928 460.279, 443.522 462.627 C 446.211 466.589, 447.315 474.089, 446.401 482.173 C 445.741 488.009, 445.787 488.184, 447.721 487.149 C 450.590 485.614, 455.871 479.360, 456.536 476.712 C 456.895 475.283, 459.060 473.436, 462.467 471.652 C 465.418 470.107, 468.617 467.976, 469.576 466.916 C 471.255 465.061, 471.147 464.820, 466.676 460.412 C 461.490 455.300, 459.172 449.416, 460.998 446.004 C 462.724 442.779, 469.686 443.266, 474.798 446.969 C 477.052 448.601, 479.405 450.889, 480.028 452.052 C 481.129 454.110, 481.214 454.117, 483.225 452.333 C 484.361 451.325, 486.134 448.615, 487.165 446.311 C 488.196 444.007, 489.894 441.851, 490.937 441.520 C 493.604 440.673, 497.575 437.406, 499.895 434.148 L 501.864 431.382 495.962 431.809 C 487.860 432.395, 481.754 431.322, 477.759 428.611 C 475.607 427.151, 472.146 426.091, 468.171 425.676 C 456.216 424.426, 453.124 420.919, 454.790 410.500 C 455.692 404.861, 455.605 404.355, 453.354 402.093 C 450.148 398.871, 449.683 396.504, 450.188 385.953 C 450.626 376.795, 450.293 376.015, 446.814 378.044 M 345 381 C 345 382.467, 345.667 383, 347.500 383 C 349.944 383, 350 383.167, 350 390.500 C 350 397.333, 350.178 398, 352 398 C 353.821 398, 354 397.333, 354 390.566 C 354 383.206, 354.027 383.130, 356.741 382.816 C 358.395 382.626, 359.615 381.805, 359.815 380.750 C 360.107 379.208, 359.246 379, 352.573 379 C 345.667 379, 345 379.176, 345 381 M 363 388.500 C 363 397.259, 363.152 398, 364.954 398 C 366.671 398, 366.945 397.180, 367.204 391.250 L 367.500 384.500 369.832 391.250 C 372.828 399.925, 374.996 400.334, 377.791 392.750 C 378.855 389.863, 379.976 386.825, 380.284 386 C 380.591 385.175, 380.878 387.538, 380.921 391.250 C 380.992 397.307, 381.205 398, 383 398 C 384.861 398, 385 397.333, 385 388.437 L 385 378.873 381.756 379.187 C 378.837 379.469, 378.324 380.025, 376.631 384.750 C 375.596 387.637, 374.438 390, 374.057 390 C 373.677 390, 372.585 387.525, 371.632 384.500 C 369.971 379.232, 369.753 379, 366.449 379 L 363 379 363 388.500 M 134.629 387.250 C 133.491 391.604, 125.837 399.162, 119.558 402.132 C 116.226 403.709, 112.518 404.999, 111.317 404.999 C 109.923 405, 108.888 405.813, 108.451 407.250 C 107.206 411.353, 99.885 419.883, 94.655 423.325 C 91.820 425.192, 87.044 427.625, 84.042 428.732 C 81.041 429.839, 78.439 431.182, 78.261 431.717 C 78.083 432.251, 79.864 434.490, 82.219 436.694 C 84.573 438.897, 87.590 442.821, 88.923 445.413 C 90.255 448.006, 92.536 450.743, 93.991 451.495 C 96.598 452.844, 96.702 452.766, 101.068 446.182 C 106.058 438.658, 110.962 435.272, 115.292 436.358 C 118.183 437.084, 121.340 441.951, 120.440 444.296 C 119.775 446.028, 116.379 447.814, 113 448.208 C 110.600 448.488, 110.467 448.875, 109.677 457.866 C 108.715 468.802, 109.679 472.266, 114.359 474.686 C 117.874 476.503, 127.060 476.688, 131.424 475.029 L 134.291 473.939 132.146 471.655 C 129.375 468.706, 129.442 467.467, 132.540 464.369 C 134.311 462.598, 134.886 461.216, 134.438 459.805 C 134.034 458.533, 134.856 455.612, 136.648 451.945 C 138.961 447.211, 140.161 445.887, 143 444.931 C 144.925 444.283, 148.001 442.631, 149.836 441.259 C 152.420 439.329, 153.943 438.891, 156.590 439.321 C 159.790 439.840, 159.969 439.724, 159.409 437.493 C 159.080 436.182, 159.797 430.779, 161.003 425.485 C 162.392 419.390, 162.956 414.579, 162.542 412.370 C 161.658 407.660, 156.018 401.660, 150.488 399.549 C 147.324 398.340, 145.478 396.866, 144.367 394.659 C 142.717 391.383, 137.130 385, 135.912 385 C 135.530 385, 134.952 386.012, 134.629 387.250 M 236.244 392.435 C 238.585 395.975, 240.829 398.548, 241.231 398.154 C 241.633 397.760, 242.216 396.102, 242.527 394.469 C 243.047 391.732, 242.697 391.285, 238.045 388.750 C 235.270 387.238, 232.771 386, 232.493 386 C 232.215 386, 233.903 388.896, 236.244 392.435 M 248.331 396.707 C 247.979 397.693, 247.521 398.819, 247.312 399.210 C 247.103 399.600, 248.297 399.444, 249.966 398.862 C 253.552 397.612, 253.625 397.405, 250.985 395.992 C 249.351 395.117, 248.850 395.252, 248.331 396.707 M 131.302 414.012 C 126.806 415.823, 124.479 424.538, 127.419 428.559 C 129.577 431.510, 137.050 431.241, 140.402 428.092 C 141.812 426.767, 143.239 424.822, 143.574 423.768 C 144.486 420.893, 142.083 416.094, 138.909 414.453 C 135.744 412.816, 134.456 412.742, 131.302 414.012 M 385.500 435.029 C 377.131 437.032, 370.065 442.169, 367.017 448.466 C 363.777 455.158, 364.484 462.180, 369.464 472.793 C 373.538 481.473, 373.724 482.229, 372.631 485.620 C 372.059 487.394, 372.436 487.837, 374.938 488.338 C 377.254 488.801, 378.844 490.385, 381.986 495.361 C 386.399 502.348, 392.859 508.842, 398.087 511.545 C 402.467 513.810, 410.698 513.672, 416.169 511.241 C 425.501 507.094, 430.934 499.769, 430.978 491.273 C 431.002 486.750, 427.317 475.867, 423.879 470.305 C 421.901 467.103, 421.789 464.754, 423.431 460.873 C 423.968 459.605, 423.361 459.103, 420.689 458.601 C 417.870 458.073, 416.627 456.936, 413.721 452.227 C 405.537 438.967, 395.247 432.697, 385.500 435.029 M 224 454.335 C 224 457.318, 219.641 468.800, 216.830 473.222 C 215.179 475.818, 212.374 478.842, 210.598 479.940 C 207.462 481.877, 207.380 482.105, 207.775 487.718 C 208.311 495.316, 205.569 502.603, 198.432 512.550 C 195.444 516.715, 193 520.319, 193 520.561 C 193 520.802, 196.456 521, 200.680 521 L 208.360 521 212.430 525.364 C 219.001 532.411, 223.517 535, 229.238 535 C 238.959 535, 245.027 529.763, 253.096 514.408 C 256.450 508.026, 258.376 505.409, 259.888 505.180 C 262.358 504.807, 262.583 503.728, 260.542 502.035 C 258.874 500.650, 259.181 498.051, 262.242 487.646 C 265.846 475.393, 263.027 465.095, 254.939 460.969 C 252.139 459.541, 249.068 459, 243.752 459 C 237.079 459, 236.115 458.736, 232.962 456.041 C 229.353 452.956, 224 451.937, 224 454.335 M 350.546 455.910 C 348.735 459.413, 349.363 459.240, 337.934 459.389 C 330.421 459.486, 328.869 459.830, 325.305 462.184 C 319.930 465.735, 317 471.814, 317 479.415 C 317 482.744, 317.708 486.690, 318.669 488.715 C 320.352 492.262, 326.385 497.378, 330.996 499.168 C 332.368 499.701, 334.987 501.278, 336.815 502.673 C 339.809 504.956, 340.541 505.106, 344.191 504.180 C 347.854 503.250, 348.470 503.379, 350.621 505.530 C 353.552 508.461, 353.831 513.938, 351.171 516.345 C 347.356 519.797, 338.381 517.846, 330.930 511.944 C 326.553 508.478, 325.424 508.741, 323.349 513.707 C 322.015 516.900, 322.067 517.448, 324.021 520.760 C 325.725 523.649, 326.013 525.273, 325.490 529.071 C 324.896 533.388, 325.104 534.077, 327.927 537.145 C 330.899 540.377, 331.055 540.427, 332.189 538.500 C 332.836 537.400, 334.649 535.213, 336.216 533.640 C 338.493 531.355, 339.613 530.914, 341.783 531.449 C 343.277 531.817, 347.103 532.372, 350.284 532.682 C 367.976 534.406, 380.140 517.929, 372.923 502.018 C 370.282 496.197, 368.471 494.277, 363 491.500 C 360.525 490.244, 357.677 488.305, 356.671 487.192 C 354.984 485.325, 354.579 485.278, 351.453 486.584 C 349.589 487.363, 347.220 488, 346.187 488 C 341.432 488, 338.659 479.185, 342.524 476.358 C 343.546 475.611, 346.095 475, 348.188 475 C 351.157 475, 352.875 475.796, 356.001 478.620 C 359.317 481.616, 360.265 482.025, 361.504 480.997 C 363.894 479.013, 363.339 473.556, 360.389 470.050 C 358.494 467.798, 357.919 466.204, 358.294 464.241 C 358.871 461.224, 357.242 457.434, 354.174 454.658 C 352.185 452.857, 352.112 452.882, 350.546 455.910 M 388.750 455.080 C 384.888 457.329, 388.389 468.595, 393.941 471.781 C 396.412 473.199, 396.696 473.846, 396.264 477.068 C 395.863 480.058, 396.432 481.772, 399.333 486.306 C 403.488 492.802, 405.832 494.395, 409.298 493.077 C 413.888 491.332, 414.077 487.779, 410.033 479.232 C 407.529 473.938, 406.583 472.867, 403.949 472.340 C 401.035 471.757, 400.872 471.498, 401.455 468.386 C 402.153 464.665, 400.676 461.088, 396.648 456.750 C 393.969 453.864, 391.672 453.378, 388.750 455.080 M 233.988 478.250 C 231.263 482.718, 230.420 487.842, 231.995 490.364 C 232.698 491.489, 232.874 492.549, 232.386 492.720 C 226.722 494.708, 224.219 498.887, 224.076 506.595 C 223.999 510.747, 225.502 512.987, 229.262 514.321 C 232.196 515.362, 235.804 512.953, 237.812 508.610 C 240.951 501.820, 241.203 499.472, 239.074 496.853 L 237.160 494.500 240.330 492.996 C 242.665 491.888, 243.856 490.367, 244.852 487.222 C 246.589 481.740, 245.715 478.421, 242.035 476.518 C 237.735 474.295, 236.199 474.625, 233.988 478.250 " stroke="none" fill="black" fill-rule="evenodd"/>
</svg>